<svg width="180" height="206" viewBox="0 0 180 206" fill="none" xmlns="http://www.w3.org/2000/svg">
<g clip-path="url(#clip0)">
<path d="M119.093 14.007C119.093 19.0763 114.993 23.1838 109.934 23.1838C104.878 23.1838 100.775 19.0763 100.775 14.007C100.775 8.93992 104.878 4.83246 109.934 4.83246C114.993 4.83246 119.093 8.93992 119.093 14.007Z" fill="#0000FF"/>
<path d="M79.2257 14.007C79.2257 19.0763 75.1257 23.1838 70.0667 23.1838C65.0099 23.1838 60.9077 19.0763 60.9077 14.007C60.9077 8.93992 65.0099 4.83246 70.0667 4.83246C75.1257 4.83246 79.2257 8.93992 79.2257 14.007Z" fill="#0000FF"/>
<path d="M3.79761 202.253H176.202V29.5344H3.79761V202.253Z" fill="#FFB035"/>
<path d="M3.79761 202.253H176.202V29.5344H3.79761V202.253Z" stroke="#979797"/>
<path d="M3.79761 202.253H176.202V29.5344H3.79761V202.253Z" stroke="#FFB035" stroke-width="7"/>
<path d="M51.1949 36.4475C51.1949 25.0114 42.0844 15.7396 30.8468 15.7396C19.6082 15.7396 10.4966 25.0114 10.4966 36.4475" stroke="#FF0042" stroke-width="7"/>
<path d="M51.1949 36.4475C51.1949 25.0114 42.0844 15.7396 30.8468 15.7396C19.6082 15.7396 10.4966 25.0114 10.4966 36.4475" fill="#FF0042"/>
<path d="M170.582 36.4475C170.582 25.0114 161.47 15.7396 150.232 15.7396C138.993 15.7396 129.883 25.0114 129.883 36.4475" fill="#FF0042"/>
<path d="M170.582 36.4475C170.582 25.0114 161.47 15.7396 150.232 15.7396C138.993 15.7396 129.883 25.0114 129.883 36.4475" stroke="#FF0042" stroke-width="7"/>
</g>
<defs>
<clipPath id="clip0">
<rect width="180" height="206" fill="white"/>
</clipPath>
</defs>
</svg>
