<svg width="162" height="69" viewBox="0 0 162 69" fill="none" xmlns="http://www.w3.org/2000/svg">
<path d="M10.1915 6.51534C15.8067 6.51534 19.6359 9.65125 19.7151 14.3328H13.7486C13.6694 12.5486 12.0517 11.3956 9.8798 11.3956C7.90087 11.3956 6.6393 12.3896 6.6393 13.8805C6.6393 15.3714 7.94045 15.9877 9.6819 16.3654L13.6694 17.2748C18.2556 18.3483 20.3879 21.1264 20.3879 24.7295C20.3879 29.8086 16.3954 32.9842 10.3498 32.9842C4.30417 32.9842 0.356207 29.9328 0 24.8885H5.93678C6.0951 26.9559 7.83161 28.1437 10.4388 28.1437C12.9125 28.1437 14.3126 27.115 14.3126 25.4054C14.3126 23.9393 13.244 23.3032 11.7449 22.9453L7.55456 21.9514C2.60724 20.8034 0.722309 18.0253 0.722309 14.6111C0.712414 9.65126 4.50206 6.51534 10.1915 6.51534Z" fill="#282821"/>
<path d="M33.1124 33.029C27.4626 33.029 23.668 29.1774 23.668 23.5019C23.668 17.6675 27.5813 13.9749 32.9937 13.9749C38.406 13.9749 42.0027 17.5879 42.0027 22.6273C42.012 23.442 41.9324 24.2552 41.7653 25.0525H29.1199C29.1991 27.1547 30.7822 28.5313 33.1124 28.5313C34.8489 28.5313 36.1946 27.8207 36.6695 26.7472H42.0522C41.2903 30.5292 37.6936 33.029 33.1124 33.029ZM36.3529 21.4395C36.2737 19.6106 34.8093 18.5024 32.7958 18.5024C30.7822 18.5024 29.3326 19.6106 29.1991 21.4395H36.3529Z" fill="#282821"/>
<path d="M74.3236 20.7636V32.5121H68.8321V22.1154C68.8321 19.9287 67.6052 18.7807 66.027 18.7807C64.0134 18.7807 62.8656 20.2716 62.8656 22.3887V32.5121H57.4533V22.1154C57.4533 20.0082 56.3055 18.8204 54.5294 18.8204C52.6296 18.8204 51.4868 20.3114 51.4868 22.3887V32.5121H45.9557V14.621H51.0514L51.2889 16.2859C51.9029 15.5527 52.6716 14.9658 53.5392 14.5678C54.4069 14.1699 55.3518 13.9707 56.3055 13.9849C58.8731 13.9849 61.0104 15.2174 61.9949 17.1605C63.1031 15.1726 65.1167 13.9849 67.8031 13.9849C71.6372 13.9749 74.3236 16.6338 74.3236 20.7636Z" fill="#282821"/>
<path d="M78.2765 8.44857C78.3254 7.50239 78.734 6.61116 79.418 5.95879C80.102 5.30643 81.0092 4.94272 81.9523 4.94272C82.8955 4.94272 83.8027 5.30643 84.4867 5.95879C85.1707 6.61116 85.5793 7.50239 85.6282 8.44857C85.5793 9.39476 85.1707 10.286 84.4867 10.9384C83.8027 11.5907 82.8955 11.9544 81.9523 11.9544C81.0092 11.9544 80.102 11.5907 79.418 10.9384C78.734 10.286 78.3254 9.39476 78.2765 8.44857ZM79.1868 14.6011H84.7179V32.4922H79.1868V14.6011Z" fill="#282821"/>
<path d="M1.48425 43.043H11.6757C18.4338 43.043 21.7138 45.9801 21.7138 51.2978C21.7138 54.7766 20.1703 57.2913 17.3652 58.5983L21.9662 68.4832H15.4901L11.5768 59.5923H7.23304V68.4832H1.48425V43.043ZM11.6362 54.6325C14.5204 54.6325 15.6286 53.0471 15.6286 51.3375C15.6286 49.6279 14.5996 48.0823 11.6708 48.0823H7.23304V54.6325H11.6362Z" fill="#282821"/>
<path d="M44.6099 50.5821V68.4732H39.3163V66.4108C38.0894 67.9961 35.8532 68.9901 33.2707 68.9901C28.2541 68.9901 24.8602 65.2578 24.8602 59.6618C24.8602 53.8274 28.4965 49.936 33.7901 49.936C36.3182 49.936 38.3318 50.771 39.6379 52.3215L39.9941 50.5722L44.6099 50.5821ZM39.0838 59.4332C39.0838 56.7347 37.3077 54.9605 34.74 54.9605C32.1724 54.9605 30.5101 56.7844 30.5101 59.4829C30.5101 62.1815 32.1674 64.0104 34.74 64.0104C37.3126 64.0104 39.0838 62.1716 39.0838 59.4332Z" fill="#282821"/>
<path d="M68.5154 41.2489V68.4831H63.9342L63.6175 66.3412C62.3906 68.0061 60.1544 69 57.5719 69C52.397 69 48.7607 65.228 48.7607 59.5127C48.7607 53.7975 52.397 49.946 57.5719 49.946C59.9417 49.946 61.8415 50.6616 63.014 51.8941V41.2489H68.5154ZM62.9843 59.4283C62.9843 56.7297 61.2082 54.9555 58.6405 54.9555C56.0729 54.9555 54.4106 56.7794 54.4106 59.478C54.4106 62.1765 56.0679 64.0054 58.6405 64.0054C61.2131 64.0054 62.9843 62.1716 62.9843 59.4332V59.4283Z" fill="#282821"/>
<path d="M72.4684 44.4345C72.5173 43.4883 72.9259 42.5971 73.6099 41.9447C74.2939 41.2924 75.2011 40.9287 76.1442 40.9287C77.0874 40.9287 77.9946 41.2924 78.6786 41.9447C79.3626 42.5971 79.7712 43.4883 79.8201 44.4345C79.7712 45.3807 79.3626 46.2719 78.6786 46.9243C77.9946 47.5767 77.0874 47.9404 76.1442 47.9404C75.2011 47.9404 74.2939 47.5767 73.6099 46.9243C72.9259 46.2719 72.5173 45.3807 72.4684 44.4345ZM73.3787 50.5821H78.9098V68.4732H73.3787V50.5821Z" fill="#282821"/>
<path d="M100.802 50.5821V68.4732H96.2155L95.8593 66.4505C94.5977 68.1551 92.6584 68.9901 90.4172 68.9901C86.0735 68.9901 83.7433 66.1722 83.7433 61.8833V50.5821H89.2744V61.0633C89.2744 63.4041 90.4568 64.1992 92.2774 64.1992C94.1722 64.1992 95.2755 62.8872 95.2755 60.9043V50.5821H100.802Z" fill="#282821"/>
<path d="M104.794 63.0065H110.236C110.315 64.239 111.3 64.9099 112.71 64.9099C113.892 64.9099 114.763 64.4775 114.763 63.4836C114.763 62.4896 113.932 62.2511 113.145 62.0921L110.325 61.3814C106.689 60.5067 105.225 58.5635 105.225 55.9842C105.225 52.3712 108.267 49.946 112.646 49.946C117.024 49.946 119.992 52.3315 120.067 55.865H114.709C114.669 54.7915 113.798 54.1156 112.537 54.1156C111.468 54.1156 110.761 54.6126 110.761 55.4674C110.761 56.3222 111.508 56.5756 112.497 56.8142L115.817 57.6093C119.176 58.4045 120.477 60.5067 120.477 62.927C120.477 66.6593 117.435 69 112.735 69C108.188 69 105.106 66.699 104.794 63.0065Z" fill="#282821"/>
<path fill-rule="evenodd" clip-rule="evenodd" d="M154.851 10.5408C154.851 22.3241 143.937 32.0251 130.303 32.0251C116.668 32.0251 105.754 22.3291 105.754 10.5458H98.5704C98.5704 26.3844 112.843 39.0722 130.283 39.0722C147.722 39.0722 162 26.3844 162 10.5458H154.851V10.5408Z" fill="#FFCC00"/>
<path d="M128.358 0H111.686V6.82347H128.358V0Z" fill="#282821"/>
</svg>
